<svg width="8px" height="8px" viewBox="0 0 8 8" version="1.1" xmlns="http://www.w3.org/2000/svg" xmlns:xlink="http://www.w3.org/1999/xlink">
    <g id="icon-clear" stroke="none" stroke-width="1" fill="none" fill-rule="evenodd">
        <g id="Group-3" fill="#9B9B9B">
            <path d="M4.80822164,4.0003 L7.83287408,0.975647559 C8.05630864,0.752213003 8.05630864,0.391060473 7.83287408,0.167625917 C7.60943953,-0.055808639 7.248287,-0.055808639 7.02485244,0.167625917 L4.0002,3.19227836 L0.975547559,0.167625917 C0.752113003,-0.055808639 0.390960473,-0.055808639 0.167525917,0.167625917 C-0.055908639,0.391060473 -0.055908639,0.752213003 0.167525917,0.975647559 L3.19217836,4.0003 L0.167525917,7.02495244 C-0.055908639,7.248387 -0.055908639,7.60953953 0.167525917,7.83297408 C0.278957473,7.94440564 0.425247105,8.00040714 0.571536738,8.00040714 C0.71782637,8.00040714 0.864116003,7.94440564 0.975547559,7.83297408 L4.0002,4.80832164 L7.02485244,7.83297408 C7.136284,7.94440564 7.28257363,8.00040714 7.42886326,8.00040714 C7.57515289,8.00040714 7.72144253,7.94440564 7.83287408,7.83297408 C8.05630864,7.60953953 8.05630864,7.248387 7.83287408,7.02495244 L4.80822164,4.0003 Z" id="Fill-1"></path>
        </g>
    </g>
</svg>
