<svg width="24px" height="24px" viewBox="0 0 14 14" version="1.1" xmlns="http://www.w3.org/2000/svg" xmlns:xlink="http://www.w3.org/1999/xlink">
    <g id="icons/icon-calendar-date-GREY" stroke="none" stroke-width="1" fill="none" fill-rule="evenodd">
        <path d="M12.25,1.16666667 C13.2148333,1.16666667 14,1.95241667 14,2.91725 L14,4.09675 C14,4.41933333 13.73925,4.68008333 13.4166667,4.68008333 C13.0946667,4.68008333 12.8333333,4.41933333 12.8333333,4.09675 L12.8333333,2.91725 C12.8333333,2.59525 12.572,2.33333333 12.25,2.33333333 L11.0833333,2.33333333 L11.0833333,3.5 C11.0833333,3.82258333 10.8225833,4.08333333 10.5,4.08333333 C10.178,4.08333333 9.91666667,3.82258333 9.91666667,3.5 L9.91666667,2.33333333 L4.08333333,2.33333333 L4.08333333,3.5 C4.08333333,3.82258333 3.82258333,4.08333333 3.5,4.08333333 C3.178,4.08333333 2.91666667,3.82258333 2.91666667,3.5 L2.91666667,2.33333333 L1.75058333,2.33333333 C1.42858333,2.33333333 1.16666667,2.59525 1.16666667,2.91725 L1.16666667,12.25 C1.16666667,12.572 1.42858333,12.8333333 1.75058333,12.8333333 L4.09675,12.8333333 C4.41933333,12.8333333 4.68008333,13.0940833 4.68008333,13.4166667 C4.68008333,13.73925 4.41933333,14 4.09675,14 L1.75058333,14 C0.78575,14 0,13.2148333 0,12.25 L0,2.91725 C0,1.95241667 0.78575,1.16666667 1.75058333,1.16666667 L2.91666667,1.16666667 L2.91666667,0.583333333 C2.91666667,0.26075 3.178,0 3.5,0 C3.82258333,0 4.08333333,0.26075 4.08333333,0.583333333 L4.08333333,1.16666667 L9.91666667,1.16666667 L9.91666667,0.583333333 C9.91666667,0.26075 10.178,0 10.5,0 C10.8225833,0 11.0833333,0.26075 11.0833333,0.583333333 L11.0833333,1.16666667 L12.25,1.16666667 Z M9.62529167,12.8333333 C11.3945417,12.8333333 12.833625,11.3936667 12.833625,9.625 C12.833625,7.85633333 11.3945417,6.41666667 9.62529167,6.41666667 C7.85604167,6.41666667 6.41695833,7.85633333 6.41695833,9.625 C6.41695833,11.3936667 7.85604167,12.8333333 9.62529167,12.8333333 Z M9.62529167,5.25 C12.0379583,5.25 14.0002917,7.21233333 14.0002917,9.625 C14.0002917,12.0376667 12.0379583,14 9.62529167,14 C7.212625,14 5.25029167,12.0376667 5.25029167,9.625 C5.25029167,7.21233333 7.212625,5.25 9.62529167,5.25 Z M9.91695833,7.58333333 C10.2389583,7.58333333 10.5002917,7.84408333 10.5002917,8.16666667 L10.5002917,9.91666667 C10.5002917,10.23925 10.2389583,10.5 9.91695833,10.5 L8.16695833,10.5 C7.84495833,10.5 7.583625,10.23925 7.583625,9.91666667 C7.583625,9.59408333 7.84495833,9.33333333 8.16695833,9.33333333 L9.333625,9.33333333 L9.333625,8.16666667 C9.333625,7.84408333 9.59495833,7.58333333 9.91695833,7.58333333 Z" id="Combined-Shape" fill="#A5A5A5"></path>
    </g>
</svg>
